<mxfile host="65bd71144e" modified="2020-10-21T02:47:36.424Z" agent="5.0 (Windows NT 10.0; Win64; x64) AppleWebKit/537.36 (KHTML, like Gecko) Code/1.50.1 Chrome/83.0.4103.122 Electron/9.2.1 Safari/537.36" etag="smagyL8n0cxX8fXBMw8k" version="13.6.5">
    <diagram id="nBwtx5O17io5sNKS_FAY" name="ページ1">
        <mxGraphModel dx="1022" dy="587" grid="1" gridSize="10" guides="1" tooltips="1" connect="1" arrows="1" fold="1" page="1" pageScale="1" pageWidth="827" pageHeight="1169" math="0" shadow="0">
            <root>
                <mxCell id="0"/>
                <mxCell id="1" parent="0"/>
                <mxCell id="25" value="" style="verticalLabelPosition=bottom;verticalAlign=top;html=1;shape=mxgraph.basic.8_point_star;rounded=0;sketch=0;strokeColor=#000000;fillColor=#FFFFFF;fontColor=#46495D;" parent="1" vertex="1">
                    <mxGeometry x="680" y="111.25" width="160" height="97.5" as="geometry"/>
                </mxCell>
                <mxCell id="7" value="メイン画面" style="swimlane;fontStyle=0;childLayout=stackLayout;horizontal=1;startSize=26;horizontalStack=0;resizeParent=1;resizeParentMax=0;resizeLast=0;collapsible=1;marginBottom=0;align=center;fontSize=14;" parent="1" vertex="1">
                    <mxGeometry x="20" y="20" width="160" height="270" as="geometry"/>
                </mxCell>
                <mxCell id="8" value="表示&#10;・カルーセル（スライド）&#10;・カード（各災害のカード）&#10;入力&#10;・検索キーワード&#10;操作&#10;・マイページ遷移ボタン&#10;・検索ボタン&#10;・投稿ボタン&#10;・設定ボタン&#10;・カルーセル&#10;・カード" style="text;strokeColor=none;fillColor=none;spacingLeft=4;spacingRight=4;overflow=hidden;rotatable=0;points=[[0,0.5],[1,0.5]];portConstraint=eastwest;fontSize=12;" parent="7" vertex="1">
                    <mxGeometry y="26" width="160" height="244" as="geometry"/>
                </mxCell>
                <mxCell id="10" value="" style="verticalLabelPosition=bottom;verticalAlign=top;html=1;shape=mxgraph.basic.8_point_star;rounded=0;sketch=0;strokeColor=#000000;fillColor=#FFFFFF;fontColor=#46495D;" parent="1" vertex="1">
                    <mxGeometry x="250" y="111.25" width="160" height="97.5" as="geometry"/>
                </mxCell>
                <mxCell id="12" value="「設定」ボタンを押す" style="text;html=1;strokeColor=none;fillColor=none;align=center;verticalAlign=middle;whiteSpace=wrap;rounded=0;sketch=0;fontColor=#46495D;" parent="1" vertex="1">
                    <mxGeometry x="285" y="150" width="90" height="20" as="geometry"/>
                </mxCell>
                <mxCell id="14" value="" style="ellipse;whiteSpace=wrap;html=1;rounded=0;sketch=0;strokeColor=#000000;fillColor=#FFFFFF;fontColor=#46495D;" parent="1" vertex="1">
                    <mxGeometry x="480" y="115" width="130" height="90" as="geometry"/>
                </mxCell>
                <mxCell id="15" value="モーダルを表示する" style="text;html=1;strokeColor=none;fillColor=none;align=center;verticalAlign=middle;whiteSpace=wrap;rounded=0;sketch=0;fontColor=#46495D;" parent="1" vertex="1">
                    <mxGeometry x="482.5" y="150" width="125" height="20" as="geometry"/>
                </mxCell>
                <mxCell id="24" value="リンク(環境設定)を押す" style="text;html=1;strokeColor=none;fillColor=none;align=center;verticalAlign=middle;whiteSpace=wrap;rounded=0;sketch=0;fontColor=#46495D;" parent="1" vertex="1">
                    <mxGeometry x="707.5" y="150" width="105" height="20" as="geometry"/>
                </mxCell>
                <mxCell id="33" value="" style="ellipse;whiteSpace=wrap;html=1;rounded=0;sketch=0;strokeColor=#000000;fillColor=#FFFFFF;fontColor=#46495D;" parent="1" vertex="1">
                    <mxGeometry x="920" y="115" width="130" height="90" as="geometry"/>
                </mxCell>
                <mxCell id="34" value="画面遷移処理" style="text;html=1;strokeColor=none;fillColor=none;align=center;verticalAlign=middle;whiteSpace=wrap;rounded=0;" parent="1" vertex="1">
                    <mxGeometry x="947.5" y="150" width="75" height="20" as="geometry"/>
                </mxCell>
                <mxCell id="30" value="環境設定画面" style="swimlane;fontStyle=0;childLayout=stackLayout;horizontal=1;startSize=26;horizontalStack=0;resizeParent=1;resizeParentMax=0;resizeLast=0;collapsible=1;marginBottom=0;align=center;fontSize=14;" parent="1" vertex="1">
                    <mxGeometry x="1161" y="100" width="160" height="120" as="geometry"/>
                </mxCell>
                <mxCell id="31" value="表示&#10;・各種環境設定&#10;入力&#10;&#10;操作&#10;" style="text;strokeColor=none;fillColor=none;spacingLeft=4;spacingRight=4;overflow=hidden;rotatable=0;points=[[0,0.5],[1,0.5]];portConstraint=eastwest;fontSize=12;" parent="30" vertex="1">
                    <mxGeometry y="26" width="160" height="94" as="geometry"/>
                </mxCell>
                <mxCell id="36" value="" style="verticalLabelPosition=bottom;verticalAlign=top;html=1;shape=mxgraph.basic.8_point_star;rounded=0;sketch=0;strokeColor=#000000;fillColor=#FFFFFF;fontColor=#46495D;" parent="1" vertex="1">
                    <mxGeometry x="680" y="310" width="160" height="97.5" as="geometry"/>
                </mxCell>
                <mxCell id="37" value="" style="verticalLabelPosition=bottom;verticalAlign=top;html=1;shape=mxgraph.basic.8_point_star;rounded=0;sketch=0;strokeColor=#000000;fillColor=#FFFFFF;fontColor=#46495D;" parent="1" vertex="1">
                    <mxGeometry x="680" y="510" width="160" height="97.5" as="geometry"/>
                </mxCell>
                <mxCell id="38" value="リンク(ガイドライン)を押す" style="text;html=1;strokeColor=none;fillColor=none;align=center;verticalAlign=middle;whiteSpace=wrap;rounded=0;sketch=0;fontColor=#46495D;" parent="1" vertex="1">
                    <mxGeometry x="707.5" y="348.75" width="105" height="20" as="geometry"/>
                </mxCell>
                <mxCell id="39" value="リンク(ログアウト)を押す" style="text;html=1;strokeColor=none;fillColor=none;align=center;verticalAlign=middle;whiteSpace=wrap;rounded=0;sketch=0;fontColor=#46495D;" parent="1" vertex="1">
                    <mxGeometry x="707.5" y="548.75" width="105" height="20" as="geometry"/>
                </mxCell>
                <mxCell id="40" value="" style="ellipse;whiteSpace=wrap;html=1;rounded=0;sketch=0;strokeColor=#000000;fillColor=#FFFFFF;fontColor=#46495D;" parent="1" vertex="1">
                    <mxGeometry x="920" y="313.75" width="130" height="90" as="geometry"/>
                </mxCell>
                <mxCell id="41" value="" style="ellipse;whiteSpace=wrap;html=1;rounded=0;sketch=0;strokeColor=#000000;fillColor=#FFFFFF;fontColor=#46495D;" parent="1" vertex="1">
                    <mxGeometry x="920" y="513.75" width="130" height="90" as="geometry"/>
                </mxCell>
                <mxCell id="42" value="画面遷移処理" style="text;html=1;strokeColor=none;fillColor=none;align=center;verticalAlign=middle;whiteSpace=wrap;rounded=0;" parent="1" vertex="1">
                    <mxGeometry x="947.5" y="348.75" width="75" height="20" as="geometry"/>
                </mxCell>
                <mxCell id="43" value="ログアウト処理" style="text;html=1;strokeColor=none;fillColor=none;align=center;verticalAlign=middle;whiteSpace=wrap;rounded=0;" parent="1" vertex="1">
                    <mxGeometry x="938.75" y="548.75" width="92.5" height="20" as="geometry"/>
                </mxCell>
                <mxCell id="44" value="ガイドライン画面" style="swimlane;fontStyle=0;childLayout=stackLayout;horizontal=1;startSize=26;horizontalStack=0;resizeParent=1;resizeParentMax=0;resizeLast=0;collapsible=1;marginBottom=0;align=center;fontSize=14;" parent="1" vertex="1">
                    <mxGeometry x="1161" y="298.75" width="160" height="120" as="geometry"/>
                </mxCell>
                <mxCell id="45" value="表示&#10;・ガイドライン&#10;入力&#10;&#10;操作&#10;" style="text;strokeColor=none;fillColor=none;spacingLeft=4;spacingRight=4;overflow=hidden;rotatable=0;points=[[0,0.5],[1,0.5]];portConstraint=eastwest;fontSize=12;" parent="44" vertex="1">
                    <mxGeometry y="26" width="160" height="94" as="geometry"/>
                </mxCell>
                <mxCell id="46" value="ログイン画面" style="swimlane;fontStyle=0;childLayout=stackLayout;horizontal=1;startSize=26;horizontalStack=0;resizeParent=1;resizeParentMax=0;resizeLast=0;collapsible=1;marginBottom=0;align=center;fontSize=14;" parent="1" vertex="1">
                    <mxGeometry x="1161" y="498.75" width="220" height="250" as="geometry"/>
                </mxCell>
                <mxCell id="47" value="表示&#10;・ID入力フォーム&#10;・パスワード入力フォーム&#10;・サインインボタン&#10;・「アカウント作成」リンク&#10;・「パスワードを忘れた場合」リンク&#10;入力&#10;・アカウントID&#10;・アカウントパスワード&#10;操作&#10;・サインインボタンを押す&#10;・「アカウント作成」&#10;リンクを押す&#10;・「パスワードを忘れた場合」&#10;リンクを押す" style="text;strokeColor=none;fillColor=none;spacingLeft=4;spacingRight=4;overflow=hidden;rotatable=0;points=[[0,0.5],[1,0.5]];portConstraint=eastwest;fontSize=12;" parent="46" vertex="1">
                    <mxGeometry y="26" width="220" height="224" as="geometry"/>
                </mxCell>
                <mxCell id="48" value="" style="endArrow=classic;html=1;" parent="1" target="10" edge="1">
                    <mxGeometry width="50" height="50" relative="1" as="geometry">
                        <mxPoint x="200" y="161" as="sourcePoint"/>
                        <mxPoint x="240" y="111.25" as="targetPoint"/>
                    </mxGeometry>
                </mxCell>
                <mxCell id="49" value="" style="endArrow=classic;html=1;" parent="1" edge="1">
                    <mxGeometry width="50" height="50" relative="1" as="geometry">
                        <mxPoint x="410" y="161.25" as="sourcePoint"/>
                        <mxPoint x="460" y="160" as="targetPoint"/>
                    </mxGeometry>
                </mxCell>
                <mxCell id="50" value="" style="endArrow=classic;html=1;" parent="1" target="25" edge="1">
                    <mxGeometry width="50" height="50" relative="1" as="geometry">
                        <mxPoint x="630" y="161" as="sourcePoint"/>
                        <mxPoint x="680" y="111.25" as="targetPoint"/>
                        <Array as="points">
                            <mxPoint x="660" y="161"/>
                            <mxPoint x="650" y="161"/>
                        </Array>
                    </mxGeometry>
                </mxCell>
                <mxCell id="51" value="" style="endArrow=none;html=1;" parent="1" edge="1">
                    <mxGeometry width="50" height="50" relative="1" as="geometry">
                        <mxPoint x="650" y="560" as="sourcePoint"/>
                        <mxPoint x="650" y="160" as="targetPoint"/>
                    </mxGeometry>
                </mxCell>
                <mxCell id="52" value="" style="endArrow=classic;html=1;" parent="1" target="37" edge="1">
                    <mxGeometry width="50" height="50" relative="1" as="geometry">
                        <mxPoint x="650" y="560" as="sourcePoint"/>
                        <mxPoint x="700" y="510" as="targetPoint"/>
                    </mxGeometry>
                </mxCell>
                <mxCell id="53" value="" style="endArrow=classic;html=1;" parent="1" target="36" edge="1">
                    <mxGeometry width="50" height="50" relative="1" as="geometry">
                        <mxPoint x="650" y="360" as="sourcePoint"/>
                        <mxPoint x="700" y="310" as="targetPoint"/>
                    </mxGeometry>
                </mxCell>
                <mxCell id="54" value="" style="endArrow=classic;html=1;" parent="1" edge="1">
                    <mxGeometry width="50" height="50" relative="1" as="geometry">
                        <mxPoint x="850" y="160" as="sourcePoint"/>
                        <mxPoint x="900" y="160" as="targetPoint"/>
                    </mxGeometry>
                </mxCell>
                <mxCell id="55" value="" style="endArrow=classic;html=1;" parent="1" edge="1">
                    <mxGeometry width="50" height="50" relative="1" as="geometry">
                        <mxPoint x="850" y="358.43" as="sourcePoint"/>
                        <mxPoint x="900" y="358.43" as="targetPoint"/>
                    </mxGeometry>
                </mxCell>
                <mxCell id="56" value="" style="endArrow=classic;html=1;" parent="1" edge="1">
                    <mxGeometry width="50" height="50" relative="1" as="geometry">
                        <mxPoint x="850" y="558.4300000000001" as="sourcePoint"/>
                        <mxPoint x="900" y="558.4300000000001" as="targetPoint"/>
                    </mxGeometry>
                </mxCell>
                <mxCell id="57" value="" style="endArrow=classic;html=1;" parent="1" edge="1">
                    <mxGeometry width="50" height="50" relative="1" as="geometry">
                        <mxPoint x="1080" y="159.68" as="sourcePoint"/>
                        <mxPoint x="1130" y="159.68" as="targetPoint"/>
                    </mxGeometry>
                </mxCell>
                <mxCell id="58" value="" style="endArrow=classic;html=1;" parent="1" edge="1">
                    <mxGeometry width="50" height="50" relative="1" as="geometry">
                        <mxPoint x="1080" y="358.43" as="sourcePoint"/>
                        <mxPoint x="1130" y="358.43" as="targetPoint"/>
                    </mxGeometry>
                </mxCell>
                <mxCell id="59" value="" style="endArrow=classic;html=1;" parent="1" edge="1">
                    <mxGeometry width="50" height="50" relative="1" as="geometry">
                        <mxPoint x="1080" y="558.4300000000001" as="sourcePoint"/>
                        <mxPoint x="1130" y="558.4300000000001" as="targetPoint"/>
                    </mxGeometry>
                </mxCell>
            </root>
        </mxGraphModel>
    </diagram>
</mxfile>